<?xml version="1.0" encoding="UTF-8" standalone="no"?>
<svg
   height="12"
   viewBox="0 0 16 12"
   width="16"
   version="1.1"
   id="svg8"
   sodipodi:docname="icon_pool_vector2_array.svg"
   inkscape:version="1.1.2 (0a00cf5339, 2022-02-04, custom)"
   xmlns:inkscape="http://www.inkscape.org/namespaces/inkscape"
   xmlns:sodipodi="http://sodipodi.sourceforge.net/DTD/sodipodi-0.dtd"
   xmlns="http://www.w3.org/2000/svg"
   xmlns:svg="http://www.w3.org/2000/svg">
  <defs
     id="defs12" />
  <sodipodi:namedview
     id="namedview10"
     pagecolor="#ffffff"
     bordercolor="#666666"
     borderopacity="1.0"
     inkscape:pageshadow="2"
     inkscape:pageopacity="0.0"
     inkscape:pagecheckerboard="0"
     showgrid="false"
     inkscape:zoom="34.833333"
     inkscape:cx="7.8086124"
     inkscape:cy="6.0287081"
     inkscape:window-width="1920"
     inkscape:window-height="1023"
     inkscape:window-x="3840"
     inkscape:window-y="0"
     inkscape:window-maximized="1"
     inkscape:current-layer="svg8" />
  <path
     d="m0 0v12h4v-2h-2v-8h2v-2zm12 0v2h2v8h-2v2h4v-12z"
     fill="#e0e0e0"
     id="path2" />
  <path
     d="m9 2v2h1a1 1 0 0 1 1 1 1 1 0 0 1 -1 1 2 2 0 0 0 -1.7324 1 2 2 0 0 0 -.26562 1h-.0019531v2h5v-2h-3a3 3 0 0 0 2.5977-1.5 3 3 0 0 0 0-3 3 3 0 0 0 -2.5977-1.5zm-6 1v6h2a3 3 0 0 0 3-3v-3h-2v3a1 1 0 0 1 -1 1v-4z"
     fill="#bd91f1"
     id="path4" />
  <path
     d="m9 2v2h1a1 1 0 0 1 1 1 1 1 0 0 1 -1 1 2 2 0 0 0 -1.7324 1 2 2 0 0 0 -.26562 1h-.00195v2.0001h5v-2h-3a3 3 0 0 0 2.5977-1.5 3 3 0 0 0 0-3 3 3 0 0 0 -2.5977-1.5001z"
     fill="#fff"
     fill-opacity=".39216"
     id="path6" />
  <path
     d="m 13.000027,4 v 2 h 2 V 4 Z m 0,4 v 4 h 2 V 8 Z"
     fill="#5abbef"
     id="path4-3" />
</svg>
