<?xml version="1.0" encoding="UTF-8" standalone="no"?>
<svg
   height="12"
   viewBox="0 0 16 12"
   width="16"
   version="1.1"
   id="svg8"
   sodipodi:docname="icon_pool_vector3i_array.svg"
   inkscape:version="1.1.2 (0a00cf5339, 2022-02-04, custom)"
   xmlns:inkscape="http://www.inkscape.org/namespaces/inkscape"
   xmlns:sodipodi="http://sodipodi.sourceforge.net/DTD/sodipodi-0.dtd"
   xmlns="http://www.w3.org/2000/svg"
   xmlns:svg="http://www.w3.org/2000/svg">
  <defs
     id="defs12" />
  <sodipodi:namedview
     id="namedview10"
     pagecolor="#ffffff"
     bordercolor="#666666"
     borderopacity="1.0"
     inkscape:pageshadow="2"
     inkscape:pageopacity="0.0"
     inkscape:pagecheckerboard="0"
     showgrid="false"
     inkscape:zoom="34.833333"
     inkscape:cx="7.6363636"
     inkscape:cy="8.1818182"
     inkscape:window-width="1920"
     inkscape:window-height="1023"
     inkscape:window-x="3840"
     inkscape:window-y="0"
     inkscape:window-maximized="1"
     inkscape:current-layer="svg8" />
  <path
     d="m0 0v12h4v-2h-2v-8h2v-2zm12 0v2h2v8h-2v2h4v-12z"
     fill="#e0e0e0"
     id="path2" />
  <path
     d="m8 1v2h2c0 .55228-.44772 1-1 1v2c.55228 0 1 .44772 1 1s-.44772 1-1 1h-1v2h1c1.0716-.0001501 2.0618-.57193 2.5977-1.5.5359-.9282.5359-2.0718 0-3-.10406-.1795-.22646-.34772-.36523-.50195.13856-.15301.26095-.31991.36523-.49805.26209-.45639.3995-.97371.39844-1.5h.003906v-2zm0 2h-2v3c-.0000096.55228-.44772.99999-1 1v-4h-2v6h2c1.6569 0 3-1.3431 3-3z"
     fill="#e286f0"
     id="path4" />
  <path
     d="m8 1v2h2c0 .55228-.44772 1-1 1v2c.55228 0 1 .44772 1 1s-.44772 1-1 1h-1v2h1c1.0716-.0001501 2.0618-.57193 2.5977-1.5.5359-.9282.5359-2.0718 0-3-.10406-.1795-.22646-.34772-.36523-.50195.13856-.15301.26095-.31991.36523-.49805.26209-.45639.3995-.97371.39844-1.5h.003906v-2z"
     fill="#fff"
     fill-opacity=".39216"
     id="path6" />
  <path
     d="m 12,4.0000002 v 2 h 2 v -2 z m 0,4 V 12 h 2 V 8.0000002 Z"
     fill="#5abbef"
     id="path4-3" />
</svg>
