<?xml version="1.0" encoding="UTF-8" standalone="no"?>
<svg
   height="12"
   viewBox="0 0 16 12"
   width="16"
   version="1.1"
   id="svg1"
   sodipodi:docname="icon_string_builder.svg"
   inkscape:version="1.4.3 (0d15f75042, 2025-12-25)"
   xmlns:inkscape="http://www.inkscape.org/namespaces/inkscape"
   xmlns:sodipodi="http://sodipodi.sourceforge.net/DTD/sodipodi-0.dtd"
   xmlns="http://www.w3.org/2000/svg"
   xmlns:svg="http://www.w3.org/2000/svg">
  <defs
     id="defs1">
    <rect
       x="-4.3556408"
       y="-1.0272738"
       width="21.737113"
       height="17.874564"
       id="rect1" />
  </defs>
  <sodipodi:namedview
     id="namedview1"
     pagecolor="#ffffff"
     bordercolor="#666666"
     borderopacity="1.0"
     inkscape:showpageshadow="2"
     inkscape:pageopacity="0.0"
     inkscape:pagecheckerboard="0"
     inkscape:deskcolor="#d1d1d1"
     inkscape:zoom="17.208333"
     inkscape:cx="8.3970944"
     inkscape:cy="10.460048"
     inkscape:window-width="1920"
     inkscape:window-height="1029"
     inkscape:window-x="1920"
     inkscape:window-y="0"
     inkscape:window-maximized="1"
     inkscape:current-layer="svg1" />
  <path
     d="M 5,2 C 3.3431458,2 2,3.3431458 2,5 V 7 C 2,7.5522847 1.5522847,8 1,8 H 0 v 2 H 1 C 2.6568542,10 4,8.6568542 4,7 V 5 C 4,4.4477153 4.4477153,4 5,4 H 6 V 2 Z m 1.3425448,0 v 5 c 0,1.6568542 1.3431458,3 3,3 H 10.342545 V 8 H 9.3425448 c -0.5522847,0 -1,-0.4477153 -1,-1 V 6 H 10.342545 V 4 H 8.3425448 V 2 Z"
     fill="#6ba7ec"
     id="path1"
     sodipodi:nodetypes="ssssccssssccscssccsscccccc" />
  <path
     id="path1-5"
     style="fill:#9ac4f5;fill-opacity:1;stroke:none;stroke-opacity:1"
     d="m 10.586394,2.2288711 v 5 c 0,1.6141387 0.867808,3.1213309 2.43517,2.9521119 h 0.434156 c 1.656854,0 2.390133,-1.3166924 2.371173,-2.973438 l -0.02055,-1.7956751 -0.02243,-1.218278 -1.502528,0.016446 -1.394211,-0.00851 v 0.00195 l -0.257815,-0.00391 -0.04297,-1.9707031 z m 3.321572,3.9521107 h 0.126447 v 1 c 0,0.5522847 -0.02641,1 -0.578693,1 H 13.15047 C 12.708999,8.0771204 12.586394,7.7020423 12.586394,7.2288711 v -1 l 1.321572,-0.020546 z"
     sodipodi:nodetypes="cscssccccccccccsscsccc" />
</svg>
