<?xml version="1.0" encoding="UTF-8" standalone="no"?>
<svg
   height="16"
   viewBox="0 0 16 16"
   width="16"
   version="1.1"
   id="svg4"
   sodipodi:docname="icon_user_settings_web_page.svg"
   inkscape:version="1.2.1 (9c6d41e410, 2022-07-14)"
   xmlns:inkscape="http://www.inkscape.org/namespaces/inkscape"
   xmlns:sodipodi="http://sodipodi.sourceforge.net/DTD/sodipodi-0.dtd"
   xmlns="http://www.w3.org/2000/svg"
   xmlns:svg="http://www.w3.org/2000/svg">
  <defs
     id="defs8" />
  <sodipodi:namedview
     id="namedview6"
     pagecolor="#ffffff"
     bordercolor="#666666"
     borderopacity="1.0"
     inkscape:showpageshadow="2"
     inkscape:pageopacity="0.0"
     inkscape:pagecheckerboard="0"
     inkscape:deskcolor="#d1d1d1"
     showgrid="false"
     inkscape:zoom="27.15625"
     inkscape:cx="-1.6570771"
     inkscape:cy="8.1749137"
     inkscape:window-width="1920"
     inkscape:window-height="1023"
     inkscape:window-x="3840"
     inkscape:window-y="0"
     inkscape:window-maximized="1"
     inkscape:current-layer="svg4" />
  <text
     xml:space="preserve"
     style="font-style:normal;font-weight:normal;font-size:40px;line-height:1.25;font-family:sans-serif;display:inline;fill:#792929;fill-opacity:1;stroke:none"
     x="11.779497"
     y="9.644598"
     id="text504"><tspan
       sodipodi:role="line"
       id="tspan502"
       x="0"
       y="0" /></text>
  <g
     aria-label="V"
     id="text516"
     style="font-size:16px;line-height:1.25;fill:#792929">
    <path
       id="path292"
       style="font-weight:bold;-inkscape-font-specification:'sans-serif Bold'"
       d="M 0.90234375 2.4082031 L 3.3300781 9.5722656 L 3.3300781 4.9804688 A 0.52452719 0.52452719 0 0 1 3.8554688 4.4550781 L 3.9941406 4.4550781 L 3.3496094 2.4082031 L 0.90234375 2.4082031 z M 8.8535156 2.4082031 L 7.9941406 5.1113281 L 7.15625 2.453125 L 4.7089844 2.453125 L 5.3886719 4.4550781 L 5.9824219 4.4550781 A 0.52452719 0.52452719 0 0 1 6.5078125 4.9804688 L 6.5078125 7.7597656 L 6.8417969 8.7441406 L 6.6933594 9.2089844 C 6.6613594 9.3263175 6.6029113 9.545235 6.5175781 9.8652344 C 6.5142836 9.877177 6.5111066 9.890337 6.5078125 9.9023438 L 6.5078125 11.138672 C 6.5078125 11.8938 6.674165 12.328462 6.8613281 12.515625 C 7.0439161 12.698213 7.3169226 12.822371 7.7441406 12.857422 L 7.9902344 12.136719 L 8.234375 12.859375 C 8.6862941 12.825757 8.9459541 12.694377 9.1054688 12.505859 A 0.52452719 0.52452719 0 0 1 9.1113281 12.5 C 9.3103499 12.271709 9.4609375 11.832662 9.4609375 11.125 L 9.4609375 9.8476562 C 9.39436 9.5668444 9.3401472 9.3621626 9.3007812 9.2539062 L 9.1425781 8.7519531 L 9.4609375 7.8164062 L 9.4609375 4.9804688 A 0.52452719 0.52452719 0 0 1 9.9863281 4.4550781 L 10.603516 4.4550781 L 11.300781 2.4082031 L 8.8535156 2.4082031 z M 12.660156 2.453125 L 12.023438 4.4550781 L 12.113281 4.4550781 A 0.52452719 0.52452719 0 0 1 12.638672 4.9804688 L 12.638672 9.7109375 L 15.109375 2.453125 L 12.660156 2.453125 z " />
  </g>
  <g
     aria-label="V"
     id="text520"
     style="font-size:16px;line-height:1.25;display:inline;fill:#793d3d" />
  <path
     id="path398"
     style="font-weight:bold;font-size:17.3333px;line-height:1.25;-inkscape-font-specification:'sans-serif Bold';display:inline;fill:#5650d0;fill-opacity:1;stroke:none;stroke-width:0.413;stroke-dasharray:none;stroke-opacity:0.990806"
     sodipodi:type="inkscape:offset"
     inkscape:radius="0"
     inkscape:original="M 6.8671875 5.3066406 L 6.8671875 11.789062 C 6.8671875 12.907166 7.2148651 13.810198 7.9101562 14.496094 C 8.6054477 15.172593 9.6189165 15.509766 10.953125 15.509766 C 11.892708 15.509766 12.668568 15.350708 13.279297 15.03125 C 13.899422 14.702396 14.35949 14.261385 14.660156 13.707031 C 14.970219 13.143281 15.125 12.51365 15.125 11.818359 L 15.125 5.3066406 L 12.998047 5.3066406 L 12.998047 11.451172 C 12.998047 12.231025 12.837037 12.805438 12.517578 13.171875 C 12.207516 13.538312 11.705057 13.720703 11.009766 13.720703 C 10.342661 13.720703 9.8402029 13.551141 9.5019531 13.212891 C 9.1637033 12.874641 8.9941406 12.291676 8.9941406 11.464844 L 8.9941406 5.3066406 L 6.8671875 5.3066406 z "
     d="m 6.8671875,5.3066406 v 6.4824214 c 0,1.118104 0.3476776,2.021136 1.0429687,2.707032 0.6952915,0.676499 1.7087603,1.013672 3.0429688,1.013672 0.939583,0 1.715443,-0.159058 2.326172,-0.478516 0.620125,-0.328854 1.080193,-0.769865 1.380859,-1.324219 C 14.970219,13.143281 15.125,12.51365 15.125,11.818359 V 5.3066406 h -2.126953 v 6.1445314 c 0,0.779853 -0.16101,1.354266 -0.480469,1.720703 -0.310062,0.366437 -0.812521,0.548828 -1.507812,0.548828 -0.667105,0 -1.1695631,-0.169562 -1.5078129,-0.507812 C 9.1637033,12.874641 8.9941406,12.291676 8.9941406,11.464844 V 5.3066406 Z"
     transform="translate(-3.005947,-0.33832216)" />
  <path
     d="m 8.0120592,12.92632 c -0.1682609,0.191402 -0.2682171,0.465489 -0.2682171,0.790042 0,1.03848 -2.0021221,-0.113629 -0.2153712,1.703663 0.5638812,0.573566 1.6935194,0.427527 2.2573874,-0.145975 0.5638937,-0.573566 0.5638817,-1.503458 0,-2.07696 C 9.0839261,12.483099 8.3821848,12.505174 8.0120146,12.92632 Z m 1.5185781,-1.027378 1.5315297,1.557752 4.339324,-4.4135241 c 0.422908,-0.4301427 0.422908,-1.1275455 0,-1.5576882 -0.42292,-0.4300789 -1.108597,-0.4300789 -1.53153,0 z"
     fill="#fc9c9c"
     id="path134"
     style="stroke-width:0.638005;fill:#fca682;fill-opacity:1" />
</svg>
