<?xml version="1.0" encoding="UTF-8" standalone="no"?>
<svg
   height="16"
   viewBox="0 0 16 16"
   width="16"
   version="1.1"
   id="svg4"
   sodipodi:docname="icon_user_manager_static.svg"
   inkscape:version="1.2.1 (9c6d41e410, 2022-07-14)"
   xmlns:inkscape="http://www.inkscape.org/namespaces/inkscape"
   xmlns:sodipodi="http://sodipodi.sourceforge.net/DTD/sodipodi-0.dtd"
   xmlns="http://www.w3.org/2000/svg"
   xmlns:svg="http://www.w3.org/2000/svg">
  <defs
     id="defs8" />
  <sodipodi:namedview
     id="namedview6"
     pagecolor="#ffffff"
     bordercolor="#666666"
     borderopacity="1.0"
     inkscape:showpageshadow="2"
     inkscape:pageopacity="0.0"
     inkscape:pagecheckerboard="0"
     inkscape:deskcolor="#d1d1d1"
     showgrid="false"
     inkscape:zoom="27.15625"
     inkscape:cx="9.0402762"
     inkscape:cy="5.5604143"
     inkscape:window-width="1920"
     inkscape:window-height="1023"
     inkscape:window-x="0"
     inkscape:window-y="0"
     inkscape:window-maximized="1"
     inkscape:current-layer="svg4" />
  <text
     xml:space="preserve"
     style="font-style:normal;font-weight:normal;font-size:40px;line-height:1.25;font-family:sans-serif;fill:#792929;fill-opacity:1;stroke:none"
     x="11.779497"
     y="9.644598"
     id="text504"><tspan
       sodipodi:role="line"
       id="tspan502"
       x="11.779497"
       y="9.644598" /></text>
  <g
     aria-label="U"
     id="text346"
     style="font-size:17.3333px;line-height:1.25;fill:#5650d0;fill-opacity:1"
     transform="translate(0.0334616,0.14280962)">
    <path
       d="m 13.217328,9.7390117 q 0,1.2826643 -0.571999,2.3226623 -0.554666,1.022665 -1.698663,1.62933 -1.1266649,0.589332 -2.8599949,0.589332 -2.4613285,0 -3.7439927,-1.247997 Q 3.0600142,11.767008 3.0600142,9.7043451 V 1.7310273 h 2.6173283 v 7.5746519 q 0,1.5253308 0.6239988,2.1493288 0.6239987,0.623999 1.854663,0.623999 1.2826642,0 1.8546627,-0.675999 Q 10.6,10.72701 10.6,9.2883459 V 1.7310273 h 2.617328 z"
       style="font-weight:bold;-inkscape-font-specification:'sans-serif Bold';fill:#5650d0;fill-opacity:1"
       id="path398" />
  </g>
  <g
     aria-label="M"
     id="text344"
     style="font-size:16px;line-height:1.25;fill:#39ce39;fill-opacity:1"
     transform="translate(-0.06588032,0.3767441)">
    <path
       d="m 6.9614779,14.748527 -2.752,-8.9600004 h -0.064 q 0.016,0.32 0.048,0.96 0.032,0.64 0.064,1.376 0.032,0.72 0.032,1.312 v 5.3120004 h -2.16 V 3.3245266 h 3.296 l 2.704,8.7360004 h 0.048 L 11.041478,3.3245266 h 3.296 V 14.748527 h -2.256 V 9.3405266 q 0,-0.544 0.016,-1.248 0.032,-0.704 0.048,-1.328 0.032,-0.64 0.048,-0.96 h -0.064 L 9.1854779,14.748527 Z"
       style="font-weight:bold;-inkscape-font-specification:'sans-serif Bold';fill:#39ce39;fill-opacity:1"
       id="path1676" />
  </g>
  <path
     d="M 11.486391,6.9514688 A 1.8666657,1.8264783 0 0 0 9.6197264,8.777947 1.8666657,1.8264783 0 0 0 10.86417,10.498612 v 0.105833 H 9.6197264 v 1.217652 H 10.86417 v 2.373448 A 3.1111094,3.0441304 0 0 1 8.4822416,12.001639 l -1.2031282,0.315116 a 4.3555531,4.2617825 0 0 0 4.2072776,3.158285 4.3555531,4.2617825 0 0 0 4.207278,-3.158285 l -1.205555,-0.316303 a 3.1111094,3.0441304 0 0 1 -2.379501,2.193904 v -2.372291 h 1.244444 V 10.604414 H 12.108613 V 10.497399 A 1.8666657,1.8264783 0 0 0 13.353057,8.777947 1.8666657,1.8264783 0 0 0 11.486391,6.9514688 Z m 0,1.2176521 A 0.62222187,0.60882608 0 0 1 12.108613,8.777947 0.62222187,0.60882608 0 0 1 11.486391,9.3867736 0.62222187,0.60882608 0 0 1 10.86417,8.777947 0.62222187,0.60882608 0 0 1 11.486391,8.1691209 Z"
     fill="#e0e0e0"
     id="path134"
     style="stroke-width:0.215;fill:#f2f2f2;fill-opacity:1;stroke:#232323;stroke-opacity:1;stroke-dasharray:none" />
</svg>
