<?xml version="1.0" encoding="UTF-8" standalone="no"?>
<svg
   height="16"
   viewBox="0 0 16 16"
   width="16"
   version="1.1"
   id="svg4"
   sodipodi:docname="icon_user_module.svg"
   inkscape:version="1.2.1 (9c6d41e410, 2022-07-14)"
   xmlns:inkscape="http://www.inkscape.org/namespaces/inkscape"
   xmlns:sodipodi="http://sodipodi.sourceforge.net/DTD/sodipodi-0.dtd"
   xmlns="http://www.w3.org/2000/svg"
   xmlns:svg="http://www.w3.org/2000/svg">
  <defs
     id="defs8" />
  <sodipodi:namedview
     id="namedview6"
     pagecolor="#ffffff"
     bordercolor="#666666"
     borderopacity="1.0"
     inkscape:showpageshadow="2"
     inkscape:pageopacity="0.0"
     inkscape:pagecheckerboard="0"
     inkscape:deskcolor="#d1d1d1"
     showgrid="false"
     inkscape:zoom="27.15625"
     inkscape:cx="4.0690449"
     inkscape:cy="6.1127733"
     inkscape:window-width="1920"
     inkscape:window-height="1023"
     inkscape:window-x="0"
     inkscape:window-y="0"
     inkscape:window-maximized="1"
     inkscape:current-layer="svg4" />
  <text
     xml:space="preserve"
     style="font-style:normal;font-weight:normal;font-size:40px;line-height:1.25;font-family:sans-serif;fill:#792929;fill-opacity:1;stroke:none"
     x="11.779497"
     y="9.644598"
     id="text504"><tspan
       sodipodi:role="line"
       id="tspan502"
       x="11.779497"
       y="9.644598" /></text>
  <g
     aria-label="U"
     id="text346"
     style="font-size:17.3333px;line-height:1.25;fill:#5650d0;fill-opacity:1"
     transform="translate(0.0334616,0.14280962)">
    <path
       d="m 13.217328,9.7390117 q 0,1.2826643 -0.571999,2.3226623 -0.554666,1.022665 -1.698663,1.62933 -1.1266649,0.589332 -2.8599949,0.589332 -2.4613285,0 -3.7439927,-1.247997 Q 3.0600142,11.767008 3.0600142,9.7043451 V 1.7310273 h 2.6173283 v 7.5746519 q 0,1.5253308 0.6239988,2.1493288 0.6239987,0.623999 1.854663,0.623999 1.2826642,0 1.8546627,-0.675999 Q 10.6,10.72701 10.6,9.2883459 V 1.7310273 h 2.617328 z"
       style="font-weight:bold;-inkscape-font-specification:'sans-serif Bold';fill:#5650d0;fill-opacity:1"
       id="path398" />
  </g>
  <path
     d="m 7.5887786,6.354744 c -0.7006869,0 -1.2686712,0.5680036 -1.2686712,1.2686721 v 6.3433599 c 0,0.700689 0.5680032,1.268673 1.2686712,1.268673 h 6.3433604 c 0.700689,0 1.268673,-0.568003 1.268673,-1.268673 V 7.6234161 c 0,-0.7006876 -0.568003,-1.2686721 -1.268673,-1.2686721 z m 0,1.2686721 H 10.126123 V 9.526424 l 0.02446,1.323225 -0.02446,1.21412 v 1.903007 H 7.5887786 Z m 3.8060174,0 h 2.537343 v 6.3433599 h -2.537343 v -1.903007 l -0.005,-1.279254 0.005,-1.258091 z"
     fill="#a5efac"
     id="path132"
     style="fill:#3bef4d;fill-opacity:1;stroke:none;stroke-width:0.134;stroke-dasharray:none;stroke-opacity:1"
     sodipodi:nodetypes="ssssssssscccccccccccccccc" />
  <rect
     style="fill:#3bef4d;fill-opacity:1;stroke:none;stroke-width:0.134;stroke-dasharray:none;stroke-opacity:1"
     id="rect1139"
     width="1.2571517"
     height="7.0011487"
     x="10.089478"
     y="-14.207174"
     transform="rotate(90)" />
</svg>
