<?xml version="1.0" encoding="UTF-8" standalone="no"?>
<svg
   height="16"
   viewBox="0 0 16 16"
   width="16"
   version="1.1"
   id="svg4"
   sodipodi:docname="icon_paint_project.svg"
   inkscape:version="1.2.1 (9c6d41e410, 2022-07-14, custom)"
   xmlns:inkscape="http://www.inkscape.org/namespaces/inkscape"
   xmlns:sodipodi="http://sodipodi.sourceforge.net/DTD/sodipodi-0.dtd"
   xmlns="http://www.w3.org/2000/svg"
   xmlns:svg="http://www.w3.org/2000/svg">
  <defs
     id="defs8" />
  <sodipodi:namedview
     id="namedview6"
     pagecolor="#ffffff"
     bordercolor="#666666"
     borderopacity="1.0"
     inkscape:showpageshadow="2"
     inkscape:pageopacity="0.0"
     inkscape:pagecheckerboard="0"
     inkscape:deskcolor="#d1d1d1"
     showgrid="false"
     inkscape:zoom="54.3125"
     inkscape:cx="6.7387802"
     inkscape:cy="7.6777906"
     inkscape:window-width="1920"
     inkscape:window-height="1023"
     inkscape:window-x="1920"
     inkscape:window-y="0"
     inkscape:window-maximized="1"
     inkscape:current-layer="svg4" />
  <path
     d="M 15,6.1 C 15,7.7 12.8,7.7 12.8,6 V 4.7 L 10.2,7.2 C 9.1,8.3 7.5,6.9 8.7,5.7 L 11.3,3.1 H 10 C 8.5,3.2 8.3,1 9.9,1 h 4 C 14.6,1 15,1.4 15,2 Z m -1.2,5.8 c -0.1,1.7 -1.4,3 -3.1,3.1 H 4.1 C 2.2,15 1,13.3 1,11.7 V 5.4 C 1,3.3 2.5,2.1 4.3,2.1 h 1.9 c 1.5,0 1.5,2.1 0,2.1 H 4.3 C 3.7,4.2 3.1,4.8 3.1,5.3 v 6.4 c 0,0.6 0.5,1.1 1.1,1.1 h 6.3 0.1 c 0.6,0 1,-0.5 1,-1.1 l 0.1,-1.2 c 0,-1.9 2.1,-1.9 2.1,-0.1 z"
     fill="#e0e0e0"
     id="path2"
     style="fill:#fff6d5" />
  <path
     d="m 3.8845913,9.0748102 c -0.26373,0.3 -0.4204,0.7296 -0.4204,1.2382998 0,1.6277 -3.1381,-0.1781 -0.33757,2.6703 0.88382,0.899 2.6544,0.6701 3.5382,-0.2288 0.8838401,-0.899 0.8838201,-2.3565 0,-3.2553998 -1.1002,-1.1191 -2.2001,-1.0845 -2.7803,-0.4244 z m 2.3802,-1.6102995 2.4005001,2.4415995 6.8013996,-6.9176995 c 0.66286,-0.6742 0.66286,-1.7673 0,-2.44150003 -0.66288,-0.6741 -1.7376,-0.6741 -2.4005,0 z"
     fill="#fc9c9c"
     id="path2-3"
     style="fill:#ffcc00" />
</svg>
