<?xml version="1.0" encoding="UTF-8" standalone="no"?>
<svg
   height="16"
   viewBox="0 0 16 16"
   width="16"
   version="1.1"
   id="svg4"
   sodipodi:docname="icon_alias_web_page.svg"
   inkscape:version="1.2.1 (9c6d41e410, 2022-07-14)"
   xmlns:inkscape="http://www.inkscape.org/namespaces/inkscape"
   xmlns:sodipodi="http://sodipodi.sourceforge.net/DTD/sodipodi-0.dtd"
   xmlns="http://www.w3.org/2000/svg"
   xmlns:svg="http://www.w3.org/2000/svg">
  <defs
     id="defs8" />
  <sodipodi:namedview
     id="namedview6"
     pagecolor="#ffffff"
     bordercolor="#666666"
     borderopacity="1.0"
     inkscape:showpageshadow="2"
     inkscape:pageopacity="0.0"
     inkscape:pagecheckerboard="0"
     inkscape:deskcolor="#d1d1d1"
     showgrid="false"
     inkscape:zoom="27.15625"
     inkscape:cx="0.77330265"
     inkscape:cy="8.1012658"
     inkscape:window-width="1920"
     inkscape:window-height="1023"
     inkscape:window-x="3840"
     inkscape:window-y="0"
     inkscape:window-maximized="1"
     inkscape:current-layer="g432" />
  <text
     xml:space="preserve"
     style="font-style:normal;font-weight:normal;font-size:40px;line-height:1.25;font-family:sans-serif;fill:#792929;fill-opacity:1;stroke:none"
     x="11.779497"
     y="9.644598"
     id="text504"><tspan
       sodipodi:role="line"
       id="tspan502"
       x="11.779497"
       y="9.644598" /></text>
  <g
     aria-label="V"
     id="text516"
     style="font-size:16px;line-height:1.25;fill:#792929">
    <path
       d="M 11.301557,2.4087246 7.4135571,13.832725 h -2.64 L 0.90155715,2.4087246 H 3.3495571 l 2.144,6.8 q 0.064,0.176 0.176,0.656 0.128,0.4640004 0.256,0.9920004 0.128,0.512 0.176,0.864 0.048,-0.352 0.16,-0.864 0.128,-0.528 0.256,-0.9920004 0.128,-0.48 0.176,-0.656 l 2.16,-6.8 z"
       style="font-weight:bold;-inkscape-font-specification:'sans-serif Bold'"
       id="path292" />
  </g>
  <g
     aria-label="V"
     id="text520"
     style="font-size:16px;line-height:1.25;fill:#793d3d">
    <path
       d="m 15.108807,2.45382 -3.888,11.424 h -2.64 l -3.872,-11.424 h 2.448 l 2.144,6.8 q 0.064,0.176 0.176,0.656 0.128,0.464 0.256,0.992 0.128,0.512 0.176,0.864 0.048,-0.352 0.16,-0.864 0.128,-0.528 0.256,-0.992 0.128,-0.48 0.176,-0.656 l 2.16,-6.8 z"
       style="font-weight:bold;-inkscape-font-specification:'sans-serif Bold'"
       id="path295" />
  </g>
  <g
     fill="none"
     stroke="#e0e0e0"
     stroke-opacity="0.99608"
     stroke-width="2"
     transform="translate(-0.15865935,-1032.4296)"
     id="g432"
     style="fill:none;fill-opacity:1">
    <path
       d="m 4.1146435,1042.7934 -2,2 2,2"
       stroke-linecap="round"
       stroke-linejoin="round"
       id="path426"
       style="fill:none;fill-opacity:1;stroke:#5be04c;stroke-opacity:1" />
    <path
       d="M 2.1146435,1044.7934 H 13.988349"
       id="path428"
       style="fill:#00ffff;fill-opacity:1;stroke:#5be04c;stroke-width:2.07791;stroke-opacity:1" />
    <path
       d="m 12.114644,1042.7934 2,2 -2,2"
       stroke-linecap="round"
       stroke-linejoin="round"
       id="path430"
       style="fill:none;fill-opacity:1;stroke:#5be04c;stroke-opacity:1" />
  </g>
</svg>
