<?xml version="1.0" encoding="UTF-8" standalone="no"?>
<svg
   height="16"
   viewBox="0 0 16 16"
   width="16"
   version="1.1"
   id="svg4"
   sodipodi:docname="icon_h_t_m_l_template_data.svg"
   inkscape:version="1.4.3 (0d15f75042, 2025-12-25)"
   xmlns:inkscape="http://www.inkscape.org/namespaces/inkscape"
   xmlns:sodipodi="http://sodipodi.sourceforge.net/DTD/sodipodi-0.dtd"
   xmlns="http://www.w3.org/2000/svg"
   xmlns:svg="http://www.w3.org/2000/svg">
  <defs
     id="defs8" />
  <sodipodi:namedview
     id="namedview6"
     pagecolor="#ffffff"
     bordercolor="#666666"
     borderopacity="1.0"
     inkscape:showpageshadow="2"
     inkscape:pageopacity="0.0"
     inkscape:pagecheckerboard="0"
     inkscape:deskcolor="#d1d1d1"
     showgrid="false"
     inkscape:zoom="22.627417"
     inkscape:cx="5.5021746"
     inkscape:cy="7.2478445"
     inkscape:window-width="1920"
     inkscape:window-height="1029"
     inkscape:window-x="3840"
     inkscape:window-y="0"
     inkscape:window-maximized="1"
     inkscape:current-layer="svg4" />
  <text
     xml:space="preserve"
     style="font-style:normal;font-weight:normal;font-size:40px;line-height:1.25;font-family:sans-serif;fill:#792929;fill-opacity:1;stroke:none"
     x="11.779497"
     y="9.644598"
     id="text504"><tspan
       sodipodi:role="line"
       id="tspan502"
       x="11.779497"
       y="9.644598" /></text>
  <g
     aria-label="V"
     id="text516"
     style="font-size:16px;line-height:1.25;fill:#bb4840;fill-opacity:1"
     transform="matrix(0.91601171,0,0,0.90752015,0.69443868,0.97405938)">
    <path
       d="M 11.301557,2.4087246 7.4135571,13.832725 h -2.64 L 0.90155715,2.4087246 H 3.3495571 l 2.144,6.8 q 0.064,0.176 0.176,0.656 0.128,0.4640004 0.256,0.9920004 0.128,0.512 0.176,0.864 0.048,-0.352 0.16,-0.864 0.128,-0.528 0.256,-0.9920004 0.128,-0.48 0.176,-0.656 l 2.16,-6.8 z"
       style="font-weight:bold;-inkscape-font-specification:'sans-serif Bold';fill:#bb4840;fill-opacity:1"
       id="path292" />
  </g>
  <path
     d="M 14.534282,3.2009506 10.972829,13.568461 H 8.5545583 L 5.007761,3.2009506 h 2.2423966 l 1.9639291,6.171137 q 0.058625,0.1597236 0.1612181,0.5953332 0.1172495,0.4210892 0.234499,0.9002602 0.1172495,0.46465 0.161218,0.784097 0.043969,-0.319447 0.1465619,-0.784097 0.1172493,-0.479171 0.2344993,-0.9002602 0.117249,-0.4356096 0.161218,-0.5953332 l 1.978585,-6.171137 z"
     style="font-weight:bold;font-size:16px;line-height:1.25;-inkscape-font-specification:'sans-serif Bold';fill:#b15f65;fill-opacity:1;stroke-width:0.911756"
     id="path295" />
  <path
     id="rect1"
     style="fill:#94484e;stroke-width:5.08001;stroke-linejoin:bevel;stroke-dasharray:20.3201, 5.08001;paint-order:markers fill stroke"
     d="M 0.00390625 0.005859375 L 0.00390625 16.001953 L 15.998047 16.001953 L 15.998047 0.005859375 L 0.00390625 0.005859375 z M 1.2421875 1.1484375 L 1.2441406 1.1484375 L 1.2460938 1.1484375 L 14.974609 1.1484375 L 14.976562 1.1484375 L 14.976562 1.1503906 L 14.978516 1.1503906 L 14.980469 1.1503906 L 14.980469 1.1523438 L 14.980469 1.1542969 L 14.982422 1.1542969 L 14.982422 1.15625 L 14.982422 14.974609 L 14.982422 14.976562 L 14.980469 14.976562 L 14.980469 14.978516 L 14.980469 14.980469 L 14.978516 14.980469 L 14.976562 14.980469 L 14.976562 14.982422 L 14.974609 14.982422 L 1.2460938 14.982422 L 1.2441406 14.982422 L 1.2421875 14.982422 L 1.2421875 14.980469 L 1.2402344 14.980469 L 1.2382812 14.978516 L 1.2382812 14.976562 L 1.2382812 14.974609 L 1.2382812 1.15625 L 1.2382812 1.1542969 L 1.2382812 1.1523438 L 1.2402344 1.1503906 L 1.2421875 1.1503906 L 1.2421875 1.1484375 z " />
  <path
     d="M 7.1066447,5.3369782 V 14.228221 H 14.223126 V 9.3784523 H 10.269524 V 5.3369782 Z m 3.9536003,0 V 8.570157 h 3.162881 z"
     fill="#e0e0e0"
     id="path1"
     sodipodi:nodetypes="ccccccccccc"
     style="fill:#ffffff;fill-opacity:1;stroke:#000000;stroke-width:0.335119;stroke-dasharray:none;stroke-opacity:1" />
</svg>
