<?xml version="1.0" encoding="UTF-8" standalone="no"?>
<svg
   height="16"
   viewBox="0 0 16 16"
   width="16"
   version="1.1"
   id="svg4"
   sodipodi:docname="icon_paged_articles_web_page.svg"
   inkscape:version="1.2.1 (9c6d41e410, 2022-07-14)"
   xmlns:inkscape="http://www.inkscape.org/namespaces/inkscape"
   xmlns:sodipodi="http://sodipodi.sourceforge.net/DTD/sodipodi-0.dtd"
   xmlns="http://www.w3.org/2000/svg"
   xmlns:svg="http://www.w3.org/2000/svg">
  <defs
     id="defs8" />
  <sodipodi:namedview
     id="namedview6"
     pagecolor="#ffffff"
     bordercolor="#666666"
     borderopacity="1.0"
     inkscape:showpageshadow="2"
     inkscape:pageopacity="0.0"
     inkscape:pagecheckerboard="0"
     inkscape:deskcolor="#d1d1d1"
     showgrid="false"
     inkscape:zoom="27.15625"
     inkscape:cx="0.42347526"
     inkscape:cy="8.1012658"
     inkscape:window-width="1920"
     inkscape:window-height="1023"
     inkscape:window-x="1920"
     inkscape:window-y="0"
     inkscape:window-maximized="1"
     inkscape:current-layer="svg4" />
  <text
     xml:space="preserve"
     style="font-style:normal;font-weight:normal;font-size:40px;line-height:1.25;font-family:sans-serif;fill:#792929;fill-opacity:1;stroke:none"
     x="11.779497"
     y="9.644598"
     id="text504"><tspan
       sodipodi:role="line"
       id="tspan502"
       x="11.779497"
       y="9.644598" /></text>
  <g
     aria-label="V"
     id="text516"
     style="font-size:16px;line-height:1.25;fill:#792929">
    <path
       d="M 11.301557,2.4087246 7.4135571,13.832725 h -2.64 L 0.90155715,2.4087246 H 3.3495571 l 2.144,6.8 q 0.064,0.176 0.176,0.656 0.128,0.4640004 0.256,0.9920004 0.128,0.512 0.176,0.864 0.048,-0.352 0.16,-0.864 0.128,-0.528 0.256,-0.9920004 0.128,-0.48 0.176,-0.656 l 2.16,-6.8 z"
       style="font-weight:bold;-inkscape-font-specification:'sans-serif Bold'"
       id="path292" />
  </g>
  <g
     aria-label="V"
     id="text520"
     style="font-size:16px;line-height:1.25;fill:#793d3d">
    <path
       d="m 15.108807,2.45382 -3.888,11.424 h -2.64 l -3.872,-11.424 h 2.448 l 2.144,6.8 q 0.064,0.176 0.176,0.656 0.128,0.464 0.256,0.992 0.128,0.512 0.176,0.864 0.048,-0.352 0.16,-0.864 0.128,-0.528 0.256,-0.992 0.128,-0.48 0.176,-0.656 l 2.16,-6.8 z"
       style="font-weight:bold;-inkscape-font-specification:'sans-serif Bold'"
       id="path295" />
  </g>
  <path
     d="M 8.5824585,9.8373333 8.4478569,14.961935 H 15.523824 V 9.6549598 h -2.94832 l -2.529398,0.052406 z M 13.165168,6.7066402 v 2.3586557 h 2.358656 z"
     fill="#e0e0e0"
     id="path134"
     style="fill:#483fe0;fill-opacity:1;stroke:#000000;stroke-width:0.09;stroke-dasharray:none;stroke-opacity:1"
     sodipodi:nodetypes="ccccccccccc" />
  <path
     d="M 5.3924141,6.7378454 V 14.99314 H 12.468381 V 9.6861651 H 9.5200616 l -3.9643538,0.078302 z m 4.7173109,0 v 2.3586557 h 2.358656 z"
     fill="#e0e0e0"
     id="path134-3"
     style="fill:#483fe0;fill-opacity:1;stroke:#000000;stroke-width:0.09;stroke-dasharray:none;stroke-opacity:1"
     sodipodi:nodetypes="ccccccccccc" />
  <path
     d="M 2.3664504,6.7600872 V 15.015382 H 9.4424173 V 9.7084068 H 6.4940975 V 6.7600872 Z m 4.7173113,0 v 2.3586557 h 2.3586556 z"
     fill="#e0e0e0"
     id="path134-6"
     style="fill:#483fe0;fill-opacity:1;stroke:#000000;stroke-width:0.09;stroke-dasharray:none;stroke-opacity:1" />
  <path
     d="m 2.8145588,7.3317806 v 2.5972292 h 1.0388917 v 4.1555662 h 0.5194461 2.597229 v 0.519446 H 10.086801 V 13.045685 H 6.9701256 v 0.519446 h -2.597229 v -2.077784 h 2.597229 v 0.519446 H 10.086801 V 10.448456 H 6.9701256 v 0.519446 H 4.3728966 V 9.9290098 h 1.558337 V 7.8512264 H 4.8923426 L 4.3728966,7.3317806 Z"
     fill="#e0e0e0"
     id="path137"
     style="stroke-width:0.119;fill:#ffffff;fill-opacity:1;stroke:#000000;stroke-opacity:1;stroke-dasharray:none" />
</svg>
