<?xml version="1.0" encoding="UTF-8" standalone="no"?>
<svg
   height="16"
   viewBox="0 0 16 16"
   width="16"
   version="1.1"
   id="svg4"
   sodipodi:docname="icon_h_t_m_l_template.svg"
   inkscape:version="1.4.3 (0d15f75042, 2025-12-25)"
   xmlns:inkscape="http://www.inkscape.org/namespaces/inkscape"
   xmlns:sodipodi="http://sodipodi.sourceforge.net/DTD/sodipodi-0.dtd"
   xmlns="http://www.w3.org/2000/svg"
   xmlns:svg="http://www.w3.org/2000/svg">
  <defs
     id="defs8" />
  <sodipodi:namedview
     id="namedview6"
     pagecolor="#ffffff"
     bordercolor="#666666"
     borderopacity="1.0"
     inkscape:showpageshadow="2"
     inkscape:pageopacity="0.0"
     inkscape:pagecheckerboard="0"
     inkscape:deskcolor="#d1d1d1"
     showgrid="false"
     inkscape:zoom="32"
     inkscape:cx="6.390625"
     inkscape:cy="6.84375"
     inkscape:window-width="1920"
     inkscape:window-height="1061"
     inkscape:window-x="0"
     inkscape:window-y="0"
     inkscape:window-maximized="1"
     inkscape:current-layer="svg4" />
  <text
     xml:space="preserve"
     style="font-style:normal;font-weight:normal;font-size:40px;line-height:1.25;font-family:sans-serif;fill:#792929;fill-opacity:1;stroke:none"
     x="11.779497"
     y="9.644598"
     id="text504"><tspan
       sodipodi:role="line"
       id="tspan502"
       x="11.779497"
       y="9.644598" /></text>
  <text
     xml:space="preserve"
     style="font-style:normal;font-weight:normal;font-size:40px;line-height:1.25;font-family:sans-serif;fill:#792929;fill-opacity:1;stroke:none"
     x="11.775591"
     y="9.6387386"
     id="text504-6"><tspan
       sodipodi:role="line"
       id="tspan502-7"
       x="11.775591"
       y="9.6387386" /></text>
  <g
     aria-label="V"
     id="text516"
     style="font-size:16px;line-height:1.25;fill:#bb4840;fill-opacity:1"
     transform="matrix(0.91601171,0,0,0.90752015,0.690533,0.96820001)">
    <path
       d="M 11.301557,2.4087246 7.4135571,13.832725 h -2.64 L 0.90155715,2.4087246 H 3.3495571 l 2.144,6.8 q 0.064,0.176 0.176,0.656 0.128,0.4640004 0.256,0.9920004 0.128,0.512 0.176,0.864 0.048,-0.352 0.16,-0.864 0.128,-0.528 0.256,-0.9920004 0.128,-0.48 0.176,-0.656 l 2.16,-6.8 z"
       style="font-weight:bold;-inkscape-font-specification:'sans-serif Bold';fill:#bb4840;fill-opacity:1"
       id="path292" />
  </g>
  <path
     d="M 14.530376,3.1950911 10.968923,13.562602 H 8.550652 L 5.003855,3.1950911 h 2.242397 l 1.963929,6.171137 q 0.05863,0.159724 0.161218,0.5953334 0.117249,0.4210895 0.234499,0.9002605 0.117249,0.46465 0.161218,0.784097 0.04397,-0.319447 0.146562,-0.784097 0.117248,-0.479171 0.234498,-0.9002605 0.117249,-0.4356095 0.161218,-0.5953334 l 1.978585,-6.171137 z"
     style="font-weight:bold;font-size:16px;line-height:1.25;-inkscape-font-specification:'sans-serif Bold';fill:#b15f65;fill-opacity:1;stroke-width:0.911756"
     id="path295" />
  <path
     id="rect1"
     style="fill:#94484e;stroke-width:5.08001;stroke-linejoin:bevel;stroke-dasharray:20.3201, 5.08001;paint-order:markers fill stroke"
     d="M 0,0 V 15.996094 H 15.99414 V 0 Z m 1.238281,1.142578 h 0.002 0.0019 13.728516 0.002 v 0.0019 h 0.002 0.002 v 0.002 0.0019 h 0.002 v 0.002 13.818359 0.002 h -0.002 v 0.002 0.002 h -0.002 -0.002 v 0.002 h -0.002 -13.728516 -0.0019 -0.002 v -0.002 h -0.002 l -0.0019,-0.002 v -0.002 -0.002 -13.8183589 -0.002 -0.0019 l 0.0019,-0.002 h 0.002 z" />
</svg>
