<?xml version="1.0" encoding="UTF-8" standalone="no"?>
<svg
   height="16"
   viewBox="0 0 16 16"
   width="16"
   version="1.1"
   id="svg1"
   sodipodi:docname="icon_p_d_f_document.svg"
   inkscape:version="1.4.3 (0d15f75042, 2025-12-25)"
   xmlns:inkscape="http://www.inkscape.org/namespaces/inkscape"
   xmlns:sodipodi="http://sodipodi.sourceforge.net/DTD/sodipodi-0.dtd"
   xmlns="http://www.w3.org/2000/svg"
   xmlns:svg="http://www.w3.org/2000/svg">
  <defs
     id="defs1">
    <rect
       x="-11.903382"
       y="-7.7294686"
       width="42.821256"
       height="39.497584"
       id="rect1" />
  </defs>
  <sodipodi:namedview
     id="namedview1"
     pagecolor="#ffffff"
     bordercolor="#666666"
     borderopacity="1.0"
     inkscape:showpageshadow="2"
     inkscape:pageopacity="0.0"
     inkscape:pagecheckerboard="0"
     inkscape:deskcolor="#d1d1d1"
     inkscape:zoom="36.592776"
     inkscape:cx="8.2120034"
     inkscape:cy="9.1001568"
     inkscape:window-width="1920"
     inkscape:window-height="1031"
     inkscape:window-x="0"
     inkscape:window-y="0"
     inkscape:window-maximized="1"
     inkscape:current-layer="svg1" />
  <path
     id="path1"
     style="fill:#e0e0e0;fill-opacity:1"
     d="M 2 1.000017 L 2 15.000017 L 14 15.000017 L 14 6.000017 L 9 6.000017 L 9 1.000017 L 2 1.000017 z M 10 1.000017 L 10 5.000017 L 14 5.000017 L 10 1.000017 z M 2.5136719 1.531267 L 8.4433594 1.531267 L 8.4433594 6.6953295 L 13.445312 6.6953295 L 13.445312 14.566423 L 2.5136719 14.566423 L 2.5136719 7.1054857 L 2.5136719 6.6953295 L 2.5136719 1.531267 z "
     transform="translate(0 -.000017)" />
  <path
     style="font-size:5.33333px;line-height:1.25;font-family:'DejaVu Sans Mono';-inkscape-font-specification:'DejaVu Sans Mono';white-space:pre;fill:#e0e0e0;fill-opacity:1"
     d="m -10.865235,-6.4654955 v 1.4609366 h 0.609375 q 0.3645828,0 0.5677076,-0.1927082 0.2057291,-0.1927083 0.2057291,-0.5390622 0,-0.346354 -0.2031249,-0.536458 -0.2031249,-0.1927082 -0.5703118,-0.1927082 z m -0.526041,-0.4322915 h 1.135416 q 0.6510409,0 0.9869782,0.2968749 0.3359373,0.2942706 0.3359373,0.8645828 0,0.5755205 -0.3359373,0.8697911 -0.3333331,0.2942707 -0.9869782,0.2942707 h -0.609375 v 1.5624991 h -0.526041 z m 3.8333307,3.4557272 q 0.6640621,0 0.9270828,-0.3255207 0.2630207,-0.3281248 0.2630207,-1.1822909 0,-0.8619787 -0.2630207,-1.1874993 -0.2604165,-0.3281248 -0.9270828,-0.3281248 h -0.2499998 v 3.0234357 z m 0.010417,-3.4557272 q 0.8906244,0 1.3124992,0.4739581 0.4218747,0.473958 0.4218747,1.4739575 0,0.994791 -0.4218747,1.4687491 -0.4218748,0.4713539 -1.3124992,0.4713539 H -8.3365907 V -6.897787 Z m 2.6718734,0 h 2.2890611 v 0.4427081 h -1.7604156 v 1.1458327 h 1.5963532 v 0.442708 h -1.5963532 v 1.8567698 h -0.5286455 z"
     id="text1"
     transform="translate(14.995169,15.768116)"
     aria-label="PDF" />
  <path
     id="rect2"
     style="fill:#e0e0e0;stroke-width:5.08;stroke-linejoin:bevel;stroke-dasharray:20.32, 5.08;stroke-opacity:0.996078;paint-order:markers fill stroke;fill-opacity:1"
     d="M 3.1973524,2.2408795 H 7.6244559 V 2.9514023 H 3.1973524 Z" />
  <path
     id="rect2-5"
     style="fill:#e0e0e0;fill-opacity:1;stroke-width:5.08;stroke-linejoin:bevel;stroke-dasharray:20.32, 5.08;stroke-opacity:0.996078;paint-order:markers fill stroke"
     d="M 3.1750953,3.8471618 H 7.6021988 V 4.5576846 H 3.1750953 Z" />
  <path
     id="rect2-2"
     style="fill:#e0e0e0;fill-opacity:1;stroke-width:5.08;stroke-linejoin:bevel;stroke-dasharray:20.32, 5.08;stroke-opacity:0.996078;paint-order:markers fill stroke"
     d="M 3.1477675,5.6285394 H 7.574871 V 6.3390622 H 3.1477675 Z" />
</svg>
