<?xml version="1.0" encoding="UTF-8" standalone="no"?>
<svg
   width="16"
   height="16"
   version="1.1"
   viewBox="0 0 16 16"
   id="svg6"
   sodipodi:docname="icon_g_d_script.svg"
   inkscape:version="1.2 (dc2aedaf03, 2022-05-15)"
   xmlns:inkscape="http://www.inkscape.org/namespaces/inkscape"
   xmlns:sodipodi="http://sodipodi.sourceforge.net/DTD/sodipodi-0.dtd"
   xmlns="http://www.w3.org/2000/svg"
   xmlns:svg="http://www.w3.org/2000/svg">
  <defs
     id="defs10" />
  <sodipodi:namedview
     id="namedview8"
     pagecolor="#ffffff"
     bordercolor="#666666"
     borderopacity="1.0"
     inkscape:showpageshadow="2"
     inkscape:pageopacity="0.0"
     inkscape:pagecheckerboard="0"
     inkscape:deskcolor="#d1d1d1"
     showgrid="false"
     inkscape:zoom="38.404737"
     inkscape:cx="10.701805"
     inkscape:cy="7.2126519"
     inkscape:window-width="1920"
     inkscape:window-height="1023"
     inkscape:window-x="3840"
     inkscape:window-y="0"
     inkscape:window-maximized="1"
     inkscape:current-layer="svg6" />
  <g
     transform="translate(0 -1036.4)"
     id="g4">
    <path
       transform="translate(0 1036.4)"
       d="m7 1l-0.56445 2.2578a5 5 0 0 0 -0.68945 0.2793l-1.9883-1.1934-1.4141 1.4141 1.1953 1.9941a5 5 0 0 0 -0.28516 0.68555l-2.2539 0.5625v2l2.2578 0.56445a5 5 0 0 0 0.2793 0.6875l-1.1934 1.9902 1.4141 1.4141 1.9941-1.1953a5 5 0 0 0 0.68555 0.28516l0.5625 2.2539h2l0.56445-2.2578a5 5 0 0 0 0.6875 -0.2793l1.9902 1.1934 1.4141-1.4141-1.1953-1.9941a5 5 0 0 0 0.28516 -0.68555l2.2539-0.5625v-2l-2.2578-0.56445a5 5 0 0 0 -0.2793 -0.6875l1.1934-1.9902-1.4141-1.4141-1.9941 1.1953a5 5 0 0 0 -0.68555 -0.28516l-0.5625-2.2539h-2zm1 5a2 2 0 0 1 2 2 2 2 0 0 1 -2 2 2 2 0 0 1 -2 -2 2 2 0 0 1 2 -2z"
       fill="#e0e0e0"
       id="path2" />
  </g>
  <text
     xml:space="preserve"
     style="font-style:normal;font-weight:normal;font-size:40px;line-height:1.25;font-family:sans-serif;fill:#000000;fill-opacity:1;stroke:none"
     x="9.4249582"
     y="10.451061"
     id="text293"><tspan
       sodipodi:role="line"
       id="tspan291"
       x="9.4249582"
       y="10.451061"></tspan></text>
  <text
     xml:space="preserve"
     style="font-style:normal;font-weight:normal;font-size:10.6667px;line-height:1.25;font-family:sans-serif;mix-blend-mode:luminosity;fill:#e0e0e0;fill-opacity:1;stroke:#707070;stroke-width:0.4;stroke-dasharray:none;stroke-opacity:1"
     x="8.6932192"
     y="15.296833"
     id="text504-9"><tspan
       sodipodi:role="line"
       id="tspan502-2"
       x="8.6932192"
       y="15.296833"
       style="font-style:normal;font-variant:normal;font-weight:bold;font-stretch:normal;font-size:10.6667px;font-family:'Droid Arabic Kufi';-inkscape-font-specification:'Droid Arabic Kufi Bold';fill:#e0e0e0;fill-opacity:1;stroke:#707070;stroke-width:0.4;stroke-dasharray:none;stroke-opacity:1">C</tspan></text>
</svg>
